<svg width="28" height="30" viewBox="0 0 28 30" fill="none" xmlns="http://www.w3.org/2000/svg">
<path d="M22.7778 1V5.44444" stroke="black" stroke-width="2" stroke-linecap="round"/>
<path d="M25 3.22222L20.5556 3.22222" stroke="black" stroke-width="2" stroke-linecap="round"/>
<g filter="url(#filter0_d_1_435)">
<path d="M16.3889 3.22222H9C6.79086 3.22222 5 5.01309 5 7.22223V16.2778M22.7778 9.61111V17C22.7778 19.2091 20.9869 21 18.7778 21H9C6.79086 21 5 19.2091 5 17V16.2778M5 16.2778L8.83824 12.4395C10.4003 10.8774 12.933 10.8774 14.4951 12.4395C15.8961 13.8406 17.5664 15.5108 18.8889 16.8333" stroke="black" stroke-width="2" stroke-linecap="round"/>
</g>
<path d="M22.7778 14.6111L22.2729 14.1062C20.7108 12.5441 18.1781 12.5441 16.616 14.1062L16.3889 14.3333" stroke="black" stroke-width="2" stroke-linecap="round"/>
<circle cx="16.1111" cy="7.66667" r="0.555556" fill="black"/>
<defs>
<filter id="filter0_d_1_435" x="0" y="2.22222" width="27.7778" height="27.7778" filterUnits="userSpaceOnUse" color-interpolation-filters="sRGB">
<feFlood flood-opacity="0" result="BackgroundImageFix"/>
<feColorMatrix in="SourceAlpha" type="matrix" values="0 0 0 0 0 0 0 0 0 0 0 0 0 0 0 0 0 0 127 0" result="hardAlpha"/>
<feOffset dy="4"/>
<feGaussianBlur stdDeviation="2"/>
<feComposite in2="hardAlpha" operator="out"/>
<feColorMatrix type="matrix" values="0 0 0 0 0 0 0 0 0 0 0 0 0 0 0 0 0 0 0.25 0"/>
<feBlend mode="normal" in2="BackgroundImageFix" result="effect1_dropShadow_1_435"/>
<feBlend mode="normal" in="SourceGraphic" in2="effect1_dropShadow_1_435" result="shape"/>
</filter>
</defs>
</svg>
